<?xml version="1.0" encoding="UTF-8" standalone="no"?>
<!DOCTYPE svg PUBLIC "-//W3C//DTD SVG 1.1//EN"
 "http://www.w3.org/Graphics/SVG/1.1/DTD/svg11.dtd">
<!-- Generated by graphviz version 2.43.0 (0)
 -->
<!-- Title: %3 Pages: 1 -->
<svg width="281pt" height="188pt"
 viewBox="0.00 0.00 281.19 188.00" xmlns="http://www.w3.org/2000/svg" xmlns:xlink="http://www.w3.org/1999/xlink">
<g id="graph0" class="graph" transform="scale(1 1) rotate(0) translate(4 184)">
<title>%3</title>
<polygon fill="white" stroke="transparent" points="-4,4 -4,-184 277.19,-184 277.19,4 -4,4"/>
<!-- op_1_0 -->
<g id="node1" class="node">
<title>op_1_0</title>
<ellipse fill="none" stroke="black" cx="167.6" cy="-162" rx="28.7" ry="18"/>
<text text-anchor="middle" x="167.6" y="-158.3" font-family="Times,serif" font-size="14.00">Mul</text>
</g>
<!-- op_1_1 -->
<g id="node2" class="node">
<title>op_1_1</title>
<ellipse fill="none" stroke="black" cx="117.6" cy="-90" rx="28.7" ry="18"/>
<text text-anchor="middle" x="117.6" y="-86.3" font-family="Times,serif" font-size="14.00">Add</text>
</g>
<!-- op_1_0&#45;&gt;op_1_1 -->
<g id="edge1" class="edge">
<title>op_1_0&#45;&gt;op_1_1</title>
<path fill="none" stroke="black" d="M156.25,-145.12C149.92,-136.26 141.91,-125.04 134.82,-115.12"/>
<polygon fill="black" stroke="black" points="137.56,-112.92 128.9,-106.82 131.86,-116.99 137.56,-112.92"/>
</g>
<!-- num_2_4 -->
<g id="node5" class="node">
<title>num_2_4</title>
<ellipse fill="none" stroke="black" cx="218.6" cy="-90" rx="54.69" ry="18"/>
<text text-anchor="middle" x="218.6" y="-86.3" font-family="Times,serif" font-size="14.00">2.000000</text>
</g>
<!-- op_1_0&#45;&gt;num_2_4 -->
<g id="edge4" class="edge">
<title>op_1_0&#45;&gt;num_2_4</title>
<path fill="none" stroke="black" d="M178.91,-145.46C185.18,-136.87 193.12,-125.97 200.24,-116.19"/>
<polygon fill="black" stroke="black" points="203.18,-118.11 206.24,-107.96 197.52,-113.98 203.18,-118.11"/>
</g>
<!-- num_1_2 -->
<g id="node3" class="node">
<title>num_1_2</title>
<ellipse fill="none" stroke="black" cx="54.6" cy="-18" rx="54.69" ry="18"/>
<text text-anchor="middle" x="54.6" y="-14.3" font-family="Times,serif" font-size="14.00">5.000000</text>
</g>
<!-- op_1_1&#45;&gt;num_1_2 -->
<g id="edge2" class="edge">
<title>op_1_1&#45;&gt;num_1_2</title>
<path fill="none" stroke="black" d="M103.93,-73.81C95.85,-64.84 85.45,-53.28 76.27,-43.09"/>
<polygon fill="black" stroke="black" points="78.85,-40.72 69.56,-35.63 73.65,-45.4 78.85,-40.72"/>
</g>
<!-- num_2_3 -->
<g id="node4" class="node">
<title>num_2_3</title>
<ellipse fill="none" stroke="black" cx="181.6" cy="-18" rx="54.69" ry="18"/>
<text text-anchor="middle" x="181.6" y="-14.3" font-family="Times,serif" font-size="14.00">6.000000</text>
</g>
<!-- op_1_1&#45;&gt;num_2_3 -->
<g id="edge3" class="edge">
<title>op_1_1&#45;&gt;num_2_3</title>
<path fill="none" stroke="black" d="M131.17,-74.15C139.35,-65.2 149.98,-53.58 159.37,-43.31"/>
<polygon fill="black" stroke="black" points="162.08,-45.53 166.25,-35.79 156.91,-40.81 162.08,-45.53"/>
</g>
</g>
</svg>
