<?xml version="1.0" encoding="UTF-8" standalone="no"?>
<!DOCTYPE svg PUBLIC "-//W3C//DTD SVG 1.1//EN"
 "http://www.w3.org/Graphics/SVG/1.1/DTD/svg11.dtd">
<!-- Generated by graphviz version 2.43.0 (0)
 -->
<!-- Title: %3 Pages: 1 -->
<svg width="595pt" height="332pt"
 viewBox="0.00 0.00 595.19 332.00" xmlns="http://www.w3.org/2000/svg" xmlns:xlink="http://www.w3.org/1999/xlink">
<g id="graph0" class="graph" transform="scale(1 1) rotate(0) translate(4 328)">
<title>%3</title>
<polygon fill="white" stroke="transparent" points="-4,4 -4,-328 591.19,-328 591.19,4 -4,4"/>
<!-- op_1_0 -->
<g id="node1" class="node">
<title>op_1_0</title>
<ellipse fill="none" stroke="black" cx="338.6" cy="-306" rx="28.7" ry="18"/>
<text text-anchor="middle" x="338.6" y="-302.3" font-family="Times,serif" font-size="14.00">Sub</text>
</g>
<!-- op_1_1 -->
<g id="node2" class="node">
<title>op_1_1</title>
<ellipse fill="none" stroke="black" cx="272.6" cy="-234" rx="28.7" ry="18"/>
<text text-anchor="middle" x="272.6" y="-230.3" font-family="Times,serif" font-size="14.00">Add</text>
</g>
<!-- op_1_0&#45;&gt;op_1_1 -->
<g id="edge1" class="edge">
<title>op_1_0&#45;&gt;op_1_1</title>
<path fill="none" stroke="black" d="M324.6,-290.15C315.59,-280.6 303.7,-267.99 293.57,-257.25"/>
<polygon fill="black" stroke="black" points="295.98,-254.7 286.57,-249.82 290.89,-259.5 295.98,-254.7"/>
</g>
<!-- op_2_8 -->
<g id="node9" class="node">
<title>op_2_8</title>
<ellipse fill="none" stroke="black" cx="405.6" cy="-234" rx="27" ry="18"/>
<text text-anchor="middle" x="405.6" y="-230.3" font-family="Times,serif" font-size="14.00">Div</text>
</g>
<!-- op_1_0&#45;&gt;op_2_8 -->
<g id="edge8" class="edge">
<title>op_1_0&#45;&gt;op_2_8</title>
<path fill="none" stroke="black" d="M352.8,-290.15C361.95,-280.6 374.02,-267.99 384.3,-257.25"/>
<polygon fill="black" stroke="black" points="387.02,-259.47 391.41,-249.82 381.96,-254.63 387.02,-259.47"/>
</g>
<!-- op_1_2 -->
<g id="node3" class="node">
<title>op_1_2</title>
<ellipse fill="none" stroke="black" cx="167.6" cy="-162" rx="27" ry="18"/>
<text text-anchor="middle" x="167.6" y="-158.3" font-family="Times,serif" font-size="14.00">Div</text>
</g>
<!-- op_1_1&#45;&gt;op_1_2 -->
<g id="edge2" class="edge">
<title>op_1_1&#45;&gt;op_1_2</title>
<path fill="none" stroke="black" d="M253.34,-220.16C236.85,-209.17 212.94,-193.23 194.55,-180.97"/>
<polygon fill="black" stroke="black" points="196.29,-177.92 186.03,-175.29 192.41,-183.75 196.29,-177.92"/>
</g>
<!-- num_2_7 -->
<g id="node8" class="node">
<title>num_2_7</title>
<ellipse fill="none" stroke="black" cx="272.6" cy="-162" rx="60.39" ry="18"/>
<text text-anchor="middle" x="272.6" y="-158.3" font-family="Times,serif" font-size="14.00">43.000000</text>
</g>
<!-- op_1_1&#45;&gt;num_2_7 -->
<g id="edge7" class="edge">
<title>op_1_1&#45;&gt;num_2_7</title>
<path fill="none" stroke="black" d="M272.6,-215.7C272.6,-207.98 272.6,-198.71 272.6,-190.11"/>
<polygon fill="black" stroke="black" points="276.1,-190.1 272.6,-180.1 269.1,-190.1 276.1,-190.1"/>
</g>
<!-- op_1_3 -->
<g id="node4" class="node">
<title>op_1_3</title>
<ellipse fill="none" stroke="black" cx="117.6" cy="-90" rx="28.7" ry="18"/>
<text text-anchor="middle" x="117.6" y="-86.3" font-family="Times,serif" font-size="14.00">Mul</text>
</g>
<!-- op_1_2&#45;&gt;op_1_3 -->
<g id="edge3" class="edge">
<title>op_1_2&#45;&gt;op_1_3</title>
<path fill="none" stroke="black" d="M156.5,-145.46C150.18,-136.62 142.12,-125.34 134.98,-115.34"/>
<polygon fill="black" stroke="black" points="137.67,-113.08 129.01,-106.98 131.97,-117.15 137.67,-113.08"/>
</g>
<!-- num_2_6 -->
<g id="node7" class="node">
<title>num_2_6</title>
<ellipse fill="none" stroke="black" cx="218.6" cy="-90" rx="54.69" ry="18"/>
<text text-anchor="middle" x="218.6" y="-86.3" font-family="Times,serif" font-size="14.00">5.000000</text>
</g>
<!-- op_1_2&#45;&gt;num_2_6 -->
<g id="edge6" class="edge">
<title>op_1_2&#45;&gt;num_2_6</title>
<path fill="none" stroke="black" d="M178.91,-145.46C185.18,-136.87 193.12,-125.97 200.24,-116.19"/>
<polygon fill="black" stroke="black" points="203.18,-118.11 206.24,-107.96 197.52,-113.98 203.18,-118.11"/>
</g>
<!-- num_1_4 -->
<g id="node5" class="node">
<title>num_1_4</title>
<ellipse fill="none" stroke="black" cx="54.6" cy="-18" rx="54.69" ry="18"/>
<text text-anchor="middle" x="54.6" y="-14.3" font-family="Times,serif" font-size="14.00">3.000000</text>
</g>
<!-- op_1_3&#45;&gt;num_1_4 -->
<g id="edge4" class="edge">
<title>op_1_3&#45;&gt;num_1_4</title>
<path fill="none" stroke="black" d="M103.93,-73.81C95.85,-64.84 85.45,-53.28 76.27,-43.09"/>
<polygon fill="black" stroke="black" points="78.85,-40.72 69.56,-35.63 73.65,-45.4 78.85,-40.72"/>
</g>
<!-- num_2_5 -->
<g id="node6" class="node">
<title>num_2_5</title>
<ellipse fill="none" stroke="black" cx="181.6" cy="-18" rx="54.69" ry="18"/>
<text text-anchor="middle" x="181.6" y="-14.3" font-family="Times,serif" font-size="14.00">2.000000</text>
</g>
<!-- op_1_3&#45;&gt;num_2_5 -->
<g id="edge5" class="edge">
<title>op_1_3&#45;&gt;num_2_5</title>
<path fill="none" stroke="black" d="M131.17,-74.15C139.35,-65.2 149.98,-53.58 159.37,-43.31"/>
<polygon fill="black" stroke="black" points="162.08,-45.53 166.25,-35.79 156.91,-40.81 162.08,-45.53"/>
</g>
<!-- num_1_9 -->
<g id="node10" class="node">
<title>num_1_9</title>
<ellipse fill="none" stroke="black" cx="405.6" cy="-162" rx="54.69" ry="18"/>
<text text-anchor="middle" x="405.6" y="-158.3" font-family="Times,serif" font-size="14.00">2.000000</text>
</g>
<!-- op_2_8&#45;&gt;num_1_9 -->
<g id="edge9" class="edge">
<title>op_2_8&#45;&gt;num_1_9</title>
<path fill="none" stroke="black" d="M405.6,-215.7C405.6,-207.98 405.6,-198.71 405.6,-190.11"/>
<polygon fill="black" stroke="black" points="409.1,-190.1 405.6,-180.1 402.1,-190.1 409.1,-190.1"/>
</g>
<!-- num_2_10 -->
<g id="node11" class="node">
<title>num_2_10</title>
<ellipse fill="none" stroke="black" cx="532.6" cy="-162" rx="54.69" ry="18"/>
<text text-anchor="middle" x="532.6" y="-158.3" font-family="Times,serif" font-size="14.00">2.000000</text>
</g>
<!-- op_2_8&#45;&gt;num_2_10 -->
<g id="edge10" class="edge">
<title>op_2_8&#45;&gt;num_2_10</title>
<path fill="none" stroke="black" d="M425.72,-221.91C444.74,-211.43 473.7,-195.46 496.68,-182.8"/>
<polygon fill="black" stroke="black" points="498.41,-185.84 505.47,-177.95 495.03,-179.71 498.41,-185.84"/>
</g>
</g>
</svg>
